<svg xmlns="http://www.w3.org/2000/svg" width="36.382" height="36.382" viewBox="0 0 36.382 36.382">
  <g id="Group_17463" data-name="Group 17463" transform="translate(0)">
    <g id="Group_17462" data-name="Group 17462" transform="translate(16.978 13.946)">
      <path id="Path_21484" data-name="Path 21484" d="M58.068,31.64v1.273a7.764,7.764,0,0,1-2.456,5.651l-2.359-.358A8.119,8.119,0,0,0,54.429,34V31.767A8.122,8.122,0,0,0,53.6,28.2a7.72,7.72,0,0,0-1.595-2.189l.006-.006A1.942,1.942,0,0,1,53.726,25a1.968,1.968,0,0,1,1.164.382,7.784,7.784,0,0,1,3.177,6.258Z" transform="translate(-38.664 -25)" fill="#fcd770"/>
      <path id="Path_21485" data-name="Path 21485" d="M48.148,25.388a5.87,5.87,0,0,1,.709.625A7.72,7.72,0,0,1,50.452,28.2a8.122,8.122,0,0,1,.825,3.565V34A8.119,8.119,0,0,1,50.1,38.207l-5.688-.873v-.006A12.728,12.728,0,0,1,44,34.114V31.652a12.909,12.909,0,0,1,.249-2.51,4.393,4.393,0,0,0,.964.1c1.34,0,2.425-.546,2.425-1.213,0-.431-.449-.806-1.122-1.019l.182-1.989A1.66,1.66,0,0,1,47,25,1.907,1.907,0,0,1,48.148,25.388Z" transform="translate(-35.511 -25)" fill="#fcd770"/>
      <path id="Path_21486" data-name="Path 21486" d="M35.318,25.261a1.922,1.922,0,0,1,.758.782v.006a7.933,7.933,0,0,0-2.438,5.718V34a7.922,7.922,0,0,0,.437,2.589l-3.4-.521A7.746,7.746,0,0,1,30,32.913V31.64a7.734,7.734,0,0,1,.121-1.352c.024-.127.049-.255.079-.382a7.818,7.818,0,0,1,2.977-4.523A1.968,1.968,0,0,1,34.342,25,1.928,1.928,0,0,1,35.318,25.261Z" transform="translate(-30 -25)" fill="#fcd770"/>
      <path id="Path_21487" data-name="Path 21487" d="M40.578,25.012l.182,2c-.673.212-1.122.588-1.122,1.019,0,.5.6.922,1.461,1.11a12.909,12.909,0,0,0-.249,2.51v2.462a12.728,12.728,0,0,0,.412,3.214l-3.808-.582-1.019-.158A7.922,7.922,0,0,1,36,34V31.767a7.933,7.933,0,0,1,2.438-5.718v-.006a7.2,7.2,0,0,1,.77-.655A2,2,0,0,1,40.384,25a1.837,1.837,0,0,1,.188.012Z" transform="translate(-32.362 -25)" fill="#fcd770"/>
    </g>
    <path id="Path_21488" data-name="Path 21488" d="M46.851,24.489c0,.667-1.085,1.213-2.425,1.213a4.393,4.393,0,0,1-.964-.1C42.6,25.411,42,24.986,42,24.489c0-.431.449-.806,1.122-1.019l-.182-2L42.612,17.9a1.371,1.371,0,0,1-.006-.158A1.736,1.736,0,0,1,44.347,16H44.5a1.739,1.739,0,0,1,1.74,1.74,1.371,1.371,0,0,1-.006.158l-.327,3.584-.182,1.989C46.4,23.683,46.851,24.059,46.851,24.489Z" transform="translate(-17.746 -7.511)" fill="#cf9e76"/>
    <path id="Path_21489" data-name="Path 21489" d="M16.073,4.5a2.986,2.986,0,0,1,.661-.079,3.02,3.02,0,0,1,2.425,1.213l-.012.061a2.745,2.745,0,0,0-.594-.061,3.025,3.025,0,0,0-2.789,1.843c-.079-.006-.158-.024-.243-.024a3.03,3.03,0,0,0-2.989,2.589,4.242,4.242,0,0,0-.746,7.864,3,3,0,0,0-.509,1.674A3.03,3.03,0,0,0,12.7,22.143a3.03,3.03,0,0,0,2.826,4.129c-.158-.012-.309-.018-.461-.018h-.146a6.02,6.02,0,0,0-3.22.928l-1.631-4.566a3.015,3.015,0,0,1-2.826-4.111,3.03,3.03,0,0,1-1.419-2.559,3,3,0,0,1,.509-1.674,4.242,4.242,0,0,1,.746-7.864,3.03,3.03,0,0,1,2.989-2.589c.085,0,.164.018.243.024a3.026,3.026,0,0,1,5.766.661Z" transform="translate(-2.787 -2)" fill="#8cc152"/>
    <path id="Path_21490" data-name="Path 21490" d="M27.892,15.579a3.013,3.013,0,0,1,.873,2.122,3.078,3.078,0,0,1-.115.825l-.024.042a1.928,1.928,0,0,0-.976-.261,1.968,1.968,0,0,0-1.164.382,7.818,7.818,0,0,0-2.977,4.523c-.03.127-.055.255-.079.382a7.733,7.733,0,0,0-.121,1.352v1.273a7.746,7.746,0,0,0,.673,3.153l-4.457-.685c-.158-.024-.309-.042-.461-.055a3.03,3.03,0,0,1-2.826-4.129,3.03,3.03,0,0,1-1.419-2.559,3,3,0,0,1,.509-1.674,4.242,4.242,0,0,1,.746-7.864,3.03,3.03,0,0,1,2.989-2.589c.085,0,.164.018.243.024A3.025,3.025,0,0,1,22.1,8a2.744,2.744,0,0,1,.594.061A3.017,3.017,0,0,1,25.073,10.5a2.986,2.986,0,0,1,.661-.079,3.027,3.027,0,0,1,2.159,5.154Z" transform="translate(-6.33 -4.362)" fill="#b4dd7f"/>
    <path id="Path_21491" data-name="Path 21491" d="M4.911,50H8.185a6.124,6.124,0,0,0,0,2.425H3.213A1.222,1.222,0,0,1,2,51.213,1.216,1.216,0,0,1,3.213,50Z" transform="translate(-2 -20.895)" fill="#b4dd7f"/>
    <path id="Path_21492" data-name="Path 21492" d="M6.328,46.024l3.608.806a6.024,6.024,0,0,0-.57,1.595H6.091A1.1,1.1,0,0,1,5,47.334v-.243A1.1,1.1,0,0,1,6.091,46a1.044,1.044,0,0,1,.236.024Z" transform="translate(-3.181 -19.32)" fill="#b4dd7f"/>
    <path id="Path_21493" data-name="Path 21493" d="M9.936,55.595,6.328,56.4a1.045,1.045,0,0,1-.236.024A1.1,1.1,0,0,1,5,55.334v-.243A1.1,1.1,0,0,1,6.091,54H9.366A6.024,6.024,0,0,0,9.936,55.595Z" transform="translate(-3.181 -22.469)" fill="#b4dd7f"/>
    <path id="Path_21494" data-name="Path 21494" d="M41.639,46.22a2.829,2.829,0,0,0-1.716-.952l-.061-.012L37.5,44.9l-5.688-.873v-.006l-3.808-.582-1.019-.158-3.4-.521-4.457-.685c-.158-.024-.309-.042-.461-.055S18.361,42,18.209,42h-.146a6.08,6.08,0,0,0-5.942,4.851,6.124,6.124,0,0,0,0,2.425,6.024,6.024,0,0,0,.57,1.595,6.059,6.059,0,0,0,5.372,3.256h.146a5.96,5.96,0,0,0,.922-.073l8.877-1.364,11.915-1.831a2.832,2.832,0,0,0,1.716-4.639Z" transform="translate(-5.936 -17.746)" fill="#ff826e"/>
  </g>
</svg>
