<svg id="Group_17555" data-name="Group 17555" xmlns="http://www.w3.org/2000/svg" width="29.914" height="23.607" viewBox="0 0 29.914 23.607">
  <path id="Path_21592" data-name="Path 21592" d="M34.788,88.384a1.874,1.874,0,1,1,1.874-1.874h0A1.874,1.874,0,0,1,34.788,88.384Zm0-2.5a.625.625,0,1,0,.625.625A.624.624,0,0,0,34.788,85.886Z" transform="translate(-30.947 -82.732)" fill="#4c8613"/>
  <path id="Path_21593" data-name="Path 21593" d="M29.914,70.348a1.319,1.319,0,0,0-.874-1.218V59.044A2.3,2.3,0,0,0,26.6,56.827H25.293V55.235a2.392,2.392,0,0,0-2.248-2.467H2.436A2.529,2.529,0,0,0,0,55.235v10.8a2.4,2.4,0,0,0,2.436,2.342H3.747v1.468A2.217,2.217,0,0,0,5.9,72.127h4.966a4.59,4.59,0,0,0,4.528,3.466,4.683,4.683,0,0,0,2.873-.968,11.43,11.43,0,0,0,2.155.219c.437,1.124,2.717,1.53,4.684,1.53s4.809-.406,4.809-1.9V70.348ZM25.293,58.076H26.6a1.073,1.073,0,0,1,1.187.968v9.649a14.557,14.557,0,0,0-2.186-.25V65.071a.78.78,0,0,0,.031-.375.874.874,0,0,0-.343-.718ZM24.98,69.63h.062a8.15,8.15,0,0,1,3.06.625h0a.656.656,0,0,1,.437.156,7.293,7.293,0,0,1-3.5.625,6.635,6.635,0,0,1-3.466-.718A6.542,6.542,0,0,1,24.98,69.63Zm-.625-2.966a6.565,6.565,0,0,1-3.622.781,11.962,11.962,0,0,1-2.5-.281,4.029,4.029,0,0,0-1-.593v-.5A10.086,10.086,0,0,0,20.7,66.6a11.771,11.771,0,0,0,3.653-.531Zm-.125-1.9a8.423,8.423,0,0,1-3.5.593,7.755,7.755,0,0,1-3.466-.656,6.986,6.986,0,0,1,3.466-.656,7.2,7.2,0,0,1,3.435.593A.251.251,0,0,0,24.231,64.759Zm-21.8,2.373a1.155,1.155,0,0,1-1.187-1.093v-10.8a1.28,1.28,0,0,1,1.187-1.218H23.044a1.146,1.146,0,0,1,1,1.218V63.26a11.712,11.712,0,0,0-3.372-.468,9.785,9.785,0,0,0-3.653.625,5,5,0,0,0,.812-2.779,5.121,5.121,0,1,0-5.121,5.121h.031a5.184,5.184,0,0,0,3.185-1.124V64.7a.468.468,0,0,0,.031.219h0v1.311h-.562a4.622,4.622,0,0,0-2.842.937Zm10.3-2.623a3.872,3.872,0,1,1,3.841-3.9c0,.01,0,.021,0,.031A3.872,3.872,0,0,1,12.74,64.509Zm-2.061,6.339H6a.968.968,0,0,1-1-.936q0-.032,0-.063V68.381h6.432A4.34,4.34,0,0,0,10.679,70.848Zm7.057,2.623a3.591,3.591,0,0,1-2.342.906,3.5,3.5,0,0,1-3.4-2.935,3.09,3.09,0,0,1-.062-.531,3.466,3.466,0,0,1,3.466-3.466h0a3.935,3.935,0,0,1,1.03.156,2.935,2.935,0,0,1,1.218.687,3.5,3.5,0,0,1,1.155,1.9h0a4.683,4.683,0,0,1,.062.687,3.466,3.466,0,0,1-1.124,2.592Zm1.561.062a6.271,6.271,0,0,0,.437-.781H20.3V73.6Zm.812-2.81h.156v.812h-.25a4.242,4.242,0,0,0,.062-.625ZM20.64,69.5h-.749a3.467,3.467,0,0,0-.375-.843l1.218.062a10.617,10.617,0,0,0,3.622-.625v.343A6.329,6.329,0,0,0,20.64,69.5Zm.906,2.217a10.4,10.4,0,0,0,3.5.531,11.515,11.515,0,0,0,3.591-.562v.593h0c-.219.25-1.436.749-3.591.749s-3.185-.406-3.5-.656Zm3.56,3.4c-2.061,0-3.31-.468-3.529-.718v-.625a10.336,10.336,0,0,0,3.466.531,11.242,11.242,0,0,0,3.622-.562v.656A6.53,6.53,0,0,1,25.105,75.126Z" transform="translate(0 -52.768)" fill="#4c8613"/>
  <path id="Path_21594" data-name="Path 21594" d="M214.831,316.29a2.717,2.717,0,1,1,2.717-2.717,2.717,2.717,0,0,1-2.717,2.717Zm0-4.184a1.468,1.468,0,1,0,1.468,1.468h0A1.468,1.468,0,0,0,214.831,312.106Z" transform="translate(-199.436 -295.432)" fill="#4c8613"/>
</svg>
