<svg id="Group_17714" data-name="Group 17714" xmlns="http://www.w3.org/2000/svg" width="24" height="24" viewBox="0 0 24 24">
  <g id="Group_17625" data-name="Group 17625" transform="translate(0 0)">
    <g id="Rectangle_502" data-name="Rectangle 502" fill="rgba(76,134,19,0.13)" stroke="rgba(255,255,255,0.14)" stroke-width="0.8">
      <rect width="24" height="24" rx="7" stroke="none"/>
      <rect x="0.4" y="0.4" width="23.2" height="23.2" rx="6.6" fill="none"/>
    </g>
  </g>
  <g id="COCO_Line_Edit_-_2" data-name="COCO/Line/Edit - 2" transform="translate(6.058 6.058)">
    <path id="Vector" d="M3.658,4.625,7.537.746a2.546,2.546,0,0,1,3.6,3.6L7.259,8.226a13.158,13.158,0,0,1-6.113,3.461l-.75.187a.319.319,0,0,1-.387-.387l.187-.75A13.158,13.158,0,0,1,3.658,4.625Z" transform="translate(0 0)" fill="none" stroke="#4c8613" stroke-width="0.8"/>
    <path id="Vector-2" data-name="Vector" d="M11.592,5.351c-1.8.6-4.2-1.8-3.6-3.6" transform="translate(-1.194 -0.264)" fill="none" stroke="#4c8613" stroke-width="0.8"/>
  </g>
</svg>
