<svg xmlns="http://www.w3.org/2000/svg" width="50.826" height="15.409" viewBox="0 0 50.826 15.409">
  <g id="visa" transform="translate(0 -175.6)">
    <path id="Path_21614" data-name="Path 21614" d="M184.8,194.922l2.582-14.522h4.034l-2.5,14.522Z" transform="translate(-166.164 -4.316)" fill="#3c58bf"/>
    <path id="Path_21615" data-name="Path 21615" d="M184.8,194.922l3.308-14.522h3.308l-2.5,14.522Z" transform="translate(-166.164 -4.316)" fill="#293688"/>
    <path id="Path_21616" data-name="Path 21616" d="M260.343,176.245a10.232,10.232,0,0,0-3.711-.645c-4.034,0-6.938,2.017-6.938,4.921,0,2.178,2.017,3.308,3.63,4.034s2.1,1.21,2.1,1.856c0,.968-1.291,1.452-2.42,1.452a8.769,8.769,0,0,1-3.872-.807l-.565-.242L248,190.122a13.081,13.081,0,0,0,4.6.807c4.276,0,7.1-2.017,7.1-5.083,0-1.694-1.049-2.985-3.469-4.034-1.452-.726-2.34-1.129-2.34-1.856,0-.645.726-1.291,2.34-1.291a7.4,7.4,0,0,1,3.066.565l.4.161.645-3.146Z" transform="translate(-222.99)" fill="#3c58bf"/>
    <path id="Path_21617" data-name="Path 21617" d="M260.343,176.245a10.232,10.232,0,0,0-3.711-.645c-4.034,0-6.212,2.017-6.212,4.921a4.217,4.217,0,0,0,2.9,4.034c1.614.726,2.1,1.21,2.1,1.856,0,.968-1.291,1.452-2.42,1.452a8.769,8.769,0,0,1-3.872-.807l-.565-.242L248,190.122a13.081,13.081,0,0,0,4.6.807c4.276,0,7.1-2.017,7.1-5.083,0-1.694-1.049-2.985-3.469-4.034-1.452-.726-2.34-1.129-2.34-1.856,0-.645.726-1.291,2.34-1.291a7.4,7.4,0,0,1,3.066.565l.4.161.645-3.146Z" transform="translate(-222.99)" fill="#293688"/>
    <path id="Path_21618" data-name="Path 21618" d="M366.548,180.4c-.968,0-1.694.081-2.1,1.049L358.4,194.922h4.356l.807-2.42h5.163l.484,2.42h3.872L369.695,180.4Zm-1.856,9.681c.242-.726,1.614-4.276,1.614-4.276s.323-.887.565-1.452l.242,1.371s.807,3.63.968,4.437h-3.388Z" transform="translate(-322.257 -4.316)" fill="#3c58bf"/>
    <path id="Path_21619" data-name="Path 21619" d="M367.516,180.4c-.968,0-1.694.081-2.1,1.049L358.4,194.922h4.356l.807-2.42h5.163l.484,2.42h3.872L369.695,180.4Zm-2.824,9.681c.323-.807,1.614-4.276,1.614-4.276s.323-.887.565-1.452l.242,1.371s.807,3.63.968,4.437h-3.388Z" transform="translate(-322.257 -4.316)" fill="#293688"/>
    <path id="Path_21620" data-name="Path 21620" d="M57.251,191.284l-.4-2.1a11.7,11.7,0,0,0-5.647-6.373l3.63,12.908h4.356L65.722,181.2H61.365Z" transform="translate(-46.037 -5.035)" fill="#3c58bf"/>
    <path id="Path_21621" data-name="Path 21621" d="M57.251,191.284l-.4-2.1a11.7,11.7,0,0,0-5.647-6.373l3.63,12.908h4.356L65.722,181.2h-3.55Z" transform="translate(-46.037 -5.035)" fill="#293688"/>
    <path id="Path_21622" data-name="Path 21622" d="M0,180.4l.726.161c5.163,1.21,8.713,4.276,10.084,7.906L9.358,181.61c-.242-.968-.968-1.21-1.856-1.21Z" transform="translate(0 -4.316)" fill="#ffbc00"/>
    <path id="Path_21623" data-name="Path 21623" d="M0,180.4H0c5.163,1.21,9.439,4.356,10.811,7.987l-1.371-5.728A1.969,1.969,0,0,0,7.5,181.126Z" transform="translate(0 -4.316)" fill="#f7981d"/>
    <path id="Path_21624" data-name="Path 21624" d="M0,180.4H0c5.163,1.21,9.439,4.356,10.811,7.987l-.968-3.146a2.845,2.845,0,0,0-1.694-2.34Z" transform="translate(0 -4.316)" fill="#ed7c00"/>
    <g id="Group_17583" data-name="Group 17583" transform="translate(5.244 177.698)">
      <path id="Path_21625" data-name="Path 21625" d="M62,204.468l-2.743-2.743L57.97,204.79l-.323-2.017A11.7,11.7,0,0,0,52,196.4l3.63,12.908h4.356Z" transform="translate(-52 -196.4)" fill="#051244"/>
      <path id="Path_21626" data-name="Path 21626" d="M188.914,292.75l-3.469-3.55-.645,3.55Z" transform="translate(-171.408 -279.842)" fill="#051244"/>
      <path id="Path_21627" data-name="Path 21627" d="M255.019,274.8h0c.323.323.484.565.4.887,0,.968-1.291,1.452-2.42,1.452a8.769,8.769,0,0,1-3.872-.807l-.565-.242L248,279.4a13.081,13.081,0,0,0,4.6.807c2.582,0,4.679-.726,5.889-2.017Z" transform="translate(-228.234 -266.894)" fill="#051244"/>
      <path id="Path_21628" data-name="Path 21628" d="M364,230.169h3.792l.807-2.42h5.163l.484,2.42h3.872l-1.371-5.889-4.841-4.679.242,1.291s.807,3.63.968,4.437h-3.388c.323-.807,1.613-4.276,1.613-4.276s.323-.887.565-1.452" transform="translate(-332.536 -217.26)" fill="#051244"/>
    </g>
  </g>
</svg>
